<svg xmlns="http://www.w3.org/2000/svg" style="display: none">

    <symbol id="user" viewBox="0 0 20 21">
        <path fill="currentColor" fill-rule="evenodd" clip-rule="evenodd"
              d="M9.07453 1.5C6.89095 1.5 5.11767 3.27499 5.11767 5.46843C5.11766 7.66186 6.89094 9.43685 9.07452 9.43685C11.2581 9.43685 13.0314 7.66186 13.0314 5.46843C13.0314 3.27499 11.2581 1.5 9.07453 1.5ZM3.61767 5.46843C3.61767 2.45003 6.05906 0 9.07454 0C12.09 0 14.5314 2.45003 14.5314 5.46843C14.5314 8.48682 12.09 10.9369 9.07451 10.9369C6.05904 10.9369 3.61766 8.48682 3.61767 5.46843ZM2.35675 14.3874C3.88164 13.2638 6.15029 12.125 9.07457 12.125C11.9989 12.125 14.2675 13.2638 15.7924 14.3874C16.5551 14.9494 17.1376 15.5116 17.5314 15.9357C17.7286 16.1481 17.8794 16.3267 17.9826 16.4548C18.0342 16.5188 18.074 16.5703 18.1019 16.6071C18.1158 16.6255 18.1268 16.6402 18.1347 16.651L18.1444 16.6642L18.1475 16.6686L18.1487 16.6702C18.1487 16.6702 18.1495 16.6714 17.5392 17.1073C16.9289 17.5433 16.9293 17.5437 16.9293 17.5437L16.9261 17.5394L16.906 17.5125C16.8869 17.4873 16.8565 17.4479 16.8148 17.3962C16.7314 17.2927 16.6035 17.1408 16.4323 16.9564C16.0892 16.5869 15.5758 16.091 14.9026 15.595C13.5555 14.6024 11.5919 13.625 9.07457 13.625C6.55729 13.625 4.59361 14.6024 3.24655 15.595C2.57331 16.091 2.05994 16.5869 1.71689 16.9564C1.54565 17.1408 1.41771 17.2927 1.33434 17.3962C1.29268 17.4479 1.26222 17.4873 1.24313 17.5125L1.22306 17.5394L1.21988 17.5437C1.21988 17.5437 1.22021 17.5433 0.60991 17.1073C-0.000390232 16.6714 7.48403e-06 16.6708 7.48403e-06 16.6708L0.00162408 16.6686L0.00476668 16.6642L0.0144317 16.651C0.0223748 16.6402 0.0333185 16.6255 0.0472455 16.6071C0.0750945 16.5703 0.114903 16.5188 0.166533 16.4548C0.269743 16.3267 0.420496 16.1481 0.617698 15.9357C1.01152 15.5116 1.59403 14.9494 2.35675 14.3874Z"
              transform="translate(1.3999 1)"></path>
    </symbol>
    <symbol id="cart" viewBox="0 0 24 20">
        <path fill="currentColor" fill-rule="evenodd" clip-rule="evenodd"
              d="M3.69409 1.5H0V0H4.86572L7.81445 11.8106C7.84204 11.9219 7.94214 12 8.05688 12H19.1235C19.2297 12 19.3242 11.9331 19.3594 11.833L21.8237 4.83301C21.8809 4.67039 21.7603 4.5 21.5879 4.5H7.5L7.16357 3H21.5879C22.7947 3 23.6392 4.19275 23.2385 5.3311L20.7744 12.3311C20.5278 13.0315 19.866 13.5 19.1235 13.5H8.05688C7.25366 13.5 6.55371 12.9532 6.35913 12.1739L3.69409 1.5ZM19 16.25C19 17.0784 18.3284 17.75 17.5 17.75C16.6716 17.75 16 17.0784 16 16.25C16 15.4216 16.6716 14.75 17.5 14.75C18.3284 14.75 19 15.4216 19 16.25ZM9.5 17.75C10.3284 17.75 11 17.0784 11 16.25C11 15.4216 10.3284 14.75 9.5 14.75C8.67163 14.75 8 15.4216 8 16.25C8 17.0784 8.67163 17.75 9.5 17.75Z"
              transform="translate(0 1)"></path>
    </symbol>
    <symbol id="email" viewBox="0 0 48 48">
        <path
                d="M45,7H3a3,3,0,0,0-3,3V38a3,3,0,0,0,3,3H45a3,3,0,0,0,3-3V10A3,3,0,0,0,45,7Zm-.64,2L24,24.74,3.64,9ZM2,37.59V10.26L17.41,22.17ZM3.41,39,19,23.41l4.38,3.39a1,1,0,0,0,1.22,0L29,23.41,44.59,39ZM46,37.59,30.59,22.17,46,10.26Z"/>
    </symbol>
    <symbol id="facebook" viewBox="0 0 24 24">
        <path d="M13,10h3v3h-3v7h-3v-7H7v-3h3V8.745c0-1.189,0.374-2.691,1.118-3.512C11.862,4.41,12.791,4,13.904,4H16v3h-2.1   C13.402,7,13,7.402,13,7.899V10z" fill="#3B5998"/>
    </symbol>
    <symbol id="instagram" viewBox="0 0 128 128">
        <path d="M83,23a22,22,0,0,1,22,22V83a22,22,0,0,1-22,22H45A22,22,0,0,1,23,83V45A22,22,0,0,1,45,23H83m0-8H45A30.09,30.09,0,0,0,15,45V83a30.09,30.09,0,0,0,30,30H83a30.09,30.09,0,0,0,30-30V45A30.09,30.09,0,0,0,83,15Z"/>
        <path d="M90.14,32a5.73,5.73,0,1,0,5.73,5.73A5.73,5.73,0,0,0,90.14,32Z"/>
        <path d="M64.27,46.47A17.68,17.68,0,1,1,46.6,64.14,17.7,17.7,0,0,1,64.27,46.47m0-8A25.68,25.68,0,1,0,90,64.14,25.68,25.68,0,0,0,64.27,38.47Z"/>
    </symbol>
    <symbol id="yuotube" viewBox="0 0 512 512">
        <path d="M501.299,132.766c-5.888,-22.03 -23.234,-39.377 -45.264,-45.264c-39.932,-10.701 -200.037,-10.701 -200.037,-10.701c0,0 -160.105,0 -200.038,10.701c-22.025,5.887 -39.376,23.234 -45.264,45.264c-10.696,39.928 -10.696,123.236 -10.696,123.236c0,0 0,83.308 10.696,123.232c5.888,22.03 23.239,39.381 45.264,45.268c39.933,10.697 200.038,10.697 200.038,10.697c0,0 160.105,0 200.037,-10.697c22.03,-5.887 39.376,-23.238 45.264,-45.268c10.701,-39.924 10.701,-123.232 10.701,-123.232c0,0 0,-83.308 -10.701,-123.236Z"
              style="fill:#ed1f24;fill-rule:nonzero;"/>
        <path d="M204.796,332.803l133.018,-76.801l-133.018,-76.801l0,153.602Z" style="fill:#fff;fill-rule:nonzero;"/>
    </symbol>

</svg>
