<?xml version="1.0" encoding="UTF-8" standalone="no"?>
<svg
        xmlns:dc="http://purl.org/dc/elements/1.1/"
        xmlns:cc="http://creativecommons.org/ns#"
        xmlns:rdf="http://www.w3.org/1999/02/22-rdf-syntax-ns#"
        xmlns:svg="http://www.w3.org/2000/svg"
        xmlns="http://www.w3.org/2000/svg"
        xmlns:sodipodi="http://sodipodi.sourceforge.net/DTD/sodipodi-0.dtd"
        xmlns:inkscape="http://www.inkscape.org/namespaces/inkscape"
        version="1.1"
        id="svg2"
        xml:space="preserve"
        width="650.52002"
        height="650.52002"
        viewBox="0 0 650.52002 650.52002"
        sodipodi:docname="Колуб лого чорне в кругу вектор (2).eps"><metadata
     id="metadata8"><rdf:RDF><cc:Work
         rdf:about=""><dc:format>image/svg+xml</dc:format><dc:type
        rdf:resource="http://purl.org/dc/dcmitype/StillImage"/></cc:Work></rdf:RDF></metadata>
    <defs
            id="defs6"/>
    <sodipodi:namedview
            pagecolor="#ffffff"
            bordercolor="#666666"
            borderopacity="1"
            objecttolerance="10"
            gridtolerance="10"
            guidetolerance="10"
            inkscape:pageopacity="0"
            inkscape:pageshadow="2"
            inkscape:window-width="640"
            inkscape:window-height="480"
            id="namedview4"/>
    <g

            transform="matrix(1.3333333,0,0,-1.3333333,0,650.52)">
        <g

       transform="scale(0.1)">
        <path
         d="m 3360.84,2268.74 c 0,0 104.35,63.43 147.32,92.08 42.97,28.64 106.4,47.06 145.27,71.61 38.88,24.55 65.48,128.9 65.48,128.9 l 22.5,18.42 c 0,0 30.69,145.27 28.65,157.54 -2.05,12.28 18.41,220.98 16.37,290.54 -2.05,69.57 0.14,128.91 0.14,128.91 l 38.73,-10.23 v 53.19 l 42.97,-12.27 10.23,63.42 24.55,-12.27 v 57.29 l 40.92,-20.46 c 0,0 6.14,30.69 16.37,63.43 10.23,32.73 47.06,45.01 47.06,45.01 0,0 2.05,-34.78 0,-90.03 -2.05,-55.24 40.92,-212.79 69.57,-308.95 28.64,-96.17 26.6,-173.92 0,-220.98 -26.6,-47.06 -73.66,-198.47 -59.34,-237.34 14.32,-38.88 12.8,-63.43 80.06,-73.66 67.26,-10.23 222.76,-6.14 222.76,-6.14 0,0 -8.19,63.43 42.97,61.38 51.15,-2.04 108.44,-45.01 120.71,-59.33 12.28,-14.32 65.48,-10.23 71.62,-16.37 6.13,-6.14 0,-24.55 0,-24.55 0,0 -34.79,-6.14 -55.25,-6.14 -20.46,0 -128.9,-12.28 -200.51,-12.28 -71.61,0 -231.21,-30.69 -278.27,-49.1 -47.06,-18.42 -126.85,-51.15 -173.91,-71.62 -47.06,-20.46 -167.78,-20.46 -214.84,-12.27 -47.06,8.18 -96.16,-8.19 -116.62,-18.42 -20.46,-10.23 -73.66,0 -85.94,0 -12.28,0 -12.28,0 -12.28,0 l -57.29,30.69"

          /><path
            d="m 3287.19,2972.59 c 0,0 -38.88,-20.46 -51.16,-75.7 -12.27,-55.25 10.24,-79.8 51.16,-118.68 40.92,-38.87 151.4,-128.9 200.51,-186.19 49.11,-57.29 128.9,-143.22 128.9,-143.22 0,0 51.15,26.6 69.57,71.61 18.41,45.01 20.46,77.75 30.69,90.03 10.23,12.27 20.46,55.24 20.46,55.24 0,0 -112.53,53.2 -145.27,71.61 -32.74,18.42 -163.69,96.17 -220.97,143.23 -57.29,47.06 -83.89,92.07 -83.89,92.07"

            /><path
            d="m 1853.51,2011.11 c -18.8,-19.01 -37.65,-39.6 -69.42,-28.58 -34.66,12.02 -42.64,46.42 -15.23,72.63 -6.83,-22.27 -6.96,-42.76 14.35,-57.03 12.3,-8.25 25.57,-8.72 38.34,1.48 -16.54,-0.69 -31.61,1.02 -39.97,17.58 -7.65,15.13 -4.2,29.22 3.06,43.57 4.07,8.04 3.59,19.37 9.23,25.45 22.84,24.59 59.35,16.67 72.7,-14.77 9.81,-23.1 3.58,-43.5 -13.06,-60.33 z m 865.58,1155.76 c 244.8,253.35 490.03,507.15 736.68,762.42 -24.02,23.22 -47.34,45.77 -70.76,68.42 C 3261.53,3869.72 3139.69,3743.29 3017.69,3617.02 2830.44,3423.19 1960.87,2553.64 1934.3,2526.27 c -8.42,-8.68 -18.83,-15.91 -10.12,-30.95 1.75,-3.03 -2.54,-11.56 -6.25,-15.46 -41.58,-43.73 -83.43,-87.2 -125.75,-130.21 -3.8,-3.86 -13.17,-7.23 -16.91,-5.2 -11.17,6.03 -16.56,0.22 -23.2,-6.7 -34.19,-35.64 -68.33,-71.34 -103.11,-106.39 -10.65,-10.74 -17.3,-20.45 -3.41,-33.78 -18.54,-19.22 -36.17,-37.68 -54,-55.94 -9.15,-9.36 -19.63,-19.04 -12.27,-33.19 6.74,-12.95 16.59,-23.99 35.38,-17.06 -0.4,-4.83 0.11,-8.03 -0.98,-10.54 -22.55,-52.03 -44.91,-104.15 -68.09,-155.9 -17,-37.93 -46.51,-54.72 -88.28,-49.68 -18.12,2.19 -32.88,-4.36 -45.69,-17.9 -36.56,-38.6 -74.05,-76.32 -110.84,-114.71 -66.34,-69.24 -132.5,-138.67 -198.64,-208.1 -53.42,-56.07 -106.824,-112.16 -160.003,-168.45 -20.246,-21.44 -20.754,-39.85 -2.703,-63.37 6.304,-8.22 12.82,-16.27 19.332,-24.32 57.064,-70.57 113.604,-141.58 171.494,-211.46 23.74,-28.67 53.63,-25.93 73.8,5.68 34.12,53.5 67.79,107.32 100.44,161.74 84.77,141.29 168.83,283.01 253.29,424.49 17.37,29.11 41.41,44.56 77.22,40.62 37.74,-4.15 70.8,7.44 97.62,35.61 31.86,33.47 31.89,42.91 -0.16,76.71 -18.01,18.98 -36.53,37.73 -52.4,58.45 -21.52,28.09 -20.81,47.29 -1.47,76.75 3.35,5.1 6.59,10.28 10.2,15.2 29.12,39.71 29.28,39.72 70.63,12.92 32.3,-20.94 66.24,-18.95 93.56,7.85 11.52,11.3 21.48,25.19 28.77,39.61 13.69,27.09 9.24,53.34 -10.21,76.68 -24.96,29.96 -24.46,47.21 3.11,75.8 111.32,115.4 728.09,802.16 847.5,930.14 27.37,29.32 27.14,30.56 -2.18,57.25 -0.66,0.6 -0.47,2.14 -0.89,4.41"

            /><path
            d="M 3185.53,2069.39 1511.3,3890.27 c -5.88,6.4 -5.5,16.35 0.85,22.28 l 0.24,0.22 c 6.39,5.96 16.4,5.62 22.37,-0.77 L 3222.57,2103.8 c 5.97,-6.39 5.62,-16.4 -0.77,-22.37 l -13.82,-12.9 c -6.42,-6 -16.5,-5.61 -22.45,0.86"

            /><path
            d="m 3351.65,1951.25 -27.22,-24.49 c -10.46,-9.41 -26.71,-7.89 -35.24,3.29 l -57.65,75.58 c -7.6,9.96 -6.28,24.1 3.04,32.49 l 15.81,14.21 c 9.32,8.39 23.51,8.21 32.63,-0.4 l 69.07,-65.3 c 10.22,-9.66 10.01,-25.98 -0.44,-35.38"

            /><path
            d="m 3516.78,1773.87 -33.37,-30.03 c -9.02,-8.11 -22.91,-7.37 -31.02,1.64 l -115.89,128.83 c -8.11,9.02 -7.38,22.91 1.64,31.02 l 33.37,30.02 c 9.02,8.11 22.91,7.38 31.02,-1.64 l 115.89,-128.83 c 8.11,-9.02 7.38,-22.9 -1.64,-31.01"

            /><path
            d="m 3965.55,1360.59 c 0,0 -39.57,31.13 -65.71,52.1 -26.15,20.96 -61.36,64.27 -86.09,83.25 -24.74,18.99 -110.05,110.7 -152.29,163.93 -42.24,53.23 -99.48,98.96 -116.56,97.58 -6.31,-0.51 -16.58,-8.51 -27,-18.38 -10.92,-9.33 -19.96,-18.69 -21.13,-24.92 -3.18,-16.84 36.26,-78.58 84.75,-126.19 48.48,-47.62 130.68,-142.12 146.95,-168.73 16.27,-26.6 55.63,-66.18 73.72,-94.39 18.09,-28.21 44.88,-70.83 44.88,-70.83 0,0 44.31,-53.62 60.9,-55.95 16.58,-2.33 65.22,-38.57 65.22,-38.57 l 26.96,20.63 1.63,-1.82 10.55,11.14 12.19,9.32 -1.64,1.81 23.36,24.64 c 0,0 -38.66,60.8 -39.23,77.53 -0.57,16.74 -41.46,57.85 -41.46,57.85"

            /><path
            d="m 3306.44,1877.41 -18.35,-17.29 28.87,-63.09 c 0,0 -14.25,-30.47 -15.88,-56.09 -1.64,-25.63 -27.45,-81.65 -27.45,-81.65 l -31.2,4.41 5.76,54.88 c 0,0 -79.56,126.6 -85.96,123.52 -3.23,-1.55 -11.97,-9.9 -19.85,-17.81 7.7,-4.1 16.39,-13.82 22.91,-26.73 10.06,-19.9 11.13,-39.61 2.4,-44.02 -8.74,-4.42 -23.97,8.13 -34.03,28.03 -4.96,9.8 -7.71,19.54 -8.2,27.45 -10.59,-0.82 -55.5,-4.55 -66.77,-9.96 -11.18,-5.37 -10.19,-53.35 -9.76,-65.47 7.98,-1.82 17.61,-6.61 26.84,-13.96 17.44,-13.9 26.63,-31.37 20.53,-39.02 -6.1,-7.66 -25.18,-2.6 -42.62,11.29 -9.69,7.73 -16.7,16.51 -20.08,24.15 -3.62,-2.31 -7.43,-3.89 -10.99,-3.38 -11.7,1.65 -14.71,-33.72 -7.99,-56.55 6.72,-22.83 42.25,-5.97 42.25,-5.97 l 60.88,-52.36 50.7,-7.17 12.89,-49.55 76.05,-10.75 -1.57,-67.4 c 0,0 -12.74,-47.93 8.45,-66.83 21.2,-18.91 55.68,14.01 52.19,24.44 -3.5,10.44 -14.37,17.95 -14.37,17.95 l -24.82,21.4 5.74,68.8 c 0,0 20.33,3.1 21.43,10.9 1.1,7.8 27.36,207.62 27.36,207.62 0,0 18.56,4.67 32.06,8.73 13.5,4.06 49.76,-34.88 49.76,-34.88 l 35.1,-4.96 -142.28,161.32"

            /><path
            d="m 3087.78,1769.89 c -20.17,21.57 -40.66,42.79 -59.49,65.68 l -14.43,16.89 -13.74,17.41 c -9.01,11.72 -18.53,23.08 -27.14,35.11 l -26.05,35.95 c -8.48,12.12 -16.58,24.5 -24.89,36.75 -8.43,12.18 -16.18,24.78 -24.06,37.31 -7.87,12.54 -15.82,25.03 -23.13,37.9 -60.26,101.96 -112.03,208.63 -160.39,316.5 -24.11,53.99 -47.13,108.43 -70.14,162.81 -5.66,13.64 -11.78,26.88 -16.64,41.72 l -13.7,42.1 c -4.7,13.74 -9.81,27.2 -16.28,39.6 -6.44,12.34 -14.37,23.69 -24.47,31.45 -4.96,4 -10.6,6.71 -16.49,8.59 -6.68,2.2 -14.09,4.05 -21.1,6.1 -7.15,2.16 -14.42,4.68 -21.62,7.01 l -21.19,8.07 c -27.94,11.55 -54.96,26.6 -78.38,46.85 -23.47,20.07 -42.5,46.19 -53.41,75.56 -10.87,29.43 -13.27,61.1 -10.7,91.53 l 11.27,-10.36 c -6.98,-0.76 -13.95,-1.7 -20.94,-2.23 -7.01,0.08 -14.04,-0.25 -21.02,0.24 -13.95,1.14 -27.78,3.45 -41.14,7.42 -13.34,3.96 -26.35,9.06 -38.57,15.61 -6.13,3.24 -12.27,6.49 -17.93,10.49 -5.87,3.7 -11.57,7.63 -16.87,12.1 l -8.13,6.46 -7.56,7.12 c -5.2,4.59 -9.8,9.76 -14.3,15.03 -9.18,10.35 -17.14,21.79 -24.04,33.8 -6.97,11.98 -12.47,24.79 -16.85,37.97 -2.28,6.56 -3.51,13.46 -5.28,20.17 l -4,19.36 c -2.79,12.22 -6.01,26.11 -12.85,30.72 -3.41,2.51 -9.31,3.83 -15.57,4.91 l -19.65,3.09 c -6.65,1.13 -13.33,2.37 -19.94,3.89 l -5.48,1.26 -4.75,1.51 -9.48,3.03 c -6.3,1.82 -12.91,5.85 -19.3,8.74 -6.38,3.22 -11.73,7.59 -17.62,11.35 -5.59,4.11 -10.51,9.07 -15.77,13.57 -4.88,4.91 -9.22,10.34 -13.83,15.5 -4.08,5.58 -7.8,11.44 -11.68,17.15 l -9.29,18.56 c -2.25,6.69 -4.63,12.77 -6.7,19.96 -1.22,6.62 -3.2,12.63 -3.5,20.01 -1.97,14.3 0.02,27.98 2.48,41.64 l 4.77,-6.7 c -22.56,3.22 -44.48,9.6 -65.24,18.66 -20.55,9.73 -39.6,21.59 -57.02,36.27 -34.74,28.63 -61.9,66.96 -76.86,109.06 -3.06,10.85 -6.49,22.05 -9.16,32.61 -2.59,10.39 -6.24,20.76 -14.83,25 -8.67,4.23 -20.65,5.24 -31.26,9.4 -10.82,3.58 -20.96,9.84 -30.04,15.86 -38.24,24.94 -64.8,63.07 -85.28,102.46 -10.19,19.91 -18.42,40.62 -27.32,60.86 -9.13,20.18 -16.82,41.07 -24.78,61.84 l -11.94,30.98 c -4.07,10.07 -9.03,19.65 -16.8,25.52 -3.96,2.59 -8.48,3.85 -13.38,3.9 -4.93,-0.13 -10.05,-1.22 -15.14,-2.79 -10.2,-3.14 -20.3,-7.72 -30.5,-12.03 -40.64,-17.6 -79.44,-38.26 -114.01,-65.46 -34.56,-27.09 -65.82,-58.22 -93.38,-92.37 l -19.57,-26.45 c -6.65,-8.72 -11.93,-18.39 -17.96,-27.53 -2.84,-4.58 -6.06,-9.39 -8.59,-13.77 l -7.83,-14.66 c -5.54,-9.72 -9.89,-19.65 -14.28,-29.56 -17.54,-39.86 -30.04,-82.29 -37.98,-125.29 -15.54,-85.9 -14.49,-176.11 11.8,-258.91 3.61,-10.2 6.53,-20.68 11.27,-30.39 4.38,-9.86 8.33,-19.94 13.96,-29.13 l 7.82,-14.09 0.98,-1.77 c 0.03,-0.08 0.63,-1.05 0.18,-0.41 l 0.6,-0.85 2.4,-3.4 4.79,-6.79 19.18,-27.16 c 27.19,-32.66 58.97,-62.81 94.45,-87.98 71.61,-49.72 153.68,-83.29 237.48,-109.96 83.81,-27.3 170.14,-47.43 255.47,-73.24 85.01,-26.4 169.24,-55.19 251.66,-89.36 41.24,-16.95 81.85,-35.61 121.57,-56.09 20,-9.97 39.39,-21.15 58.94,-32.01 19.12,-11.63 38.46,-22.9 56.97,-35.54 37.39,-24.64 73.43,-51.53 106.8,-81.54 l 12.67,-11.07 12.12,-11.67 c 8.04,-7.92 16.25,-15.27 24.14,-23.65 15.55,-16.37 29.86,-34.49 42.67,-52.92 25.73,-37.13 47.01,-77.04 64.13,-118.67 17.06,-41.62 29.75,-85.27 35.59,-130.2 5.73,-44.74 4.49,-91.63 -11.02,-135.16 -7.69,-21.66 -19.02,-42.18 -33.73,-59.93 -1.97,-2.33 -3.33,-4.25 -5.81,-6.9 l -5.9,-5.86 c -3.93,-3.9 -7.7,-7.87 -12.54,-11.45 -4.64,-3.53 -9.04,-7.62 -13.9,-10.64 l -14.49,-9.26 c -20.01,-11.18 -41.6,-19.27 -63.95,-23.95 -22.31,-4.8 -45.63,-5.66 -68.27,-1.59 -22.59,3.93 -44.55,12.98 -62.7,27.34 -18.58,14.1 -31.25,34.25 -39.84,55.32 -8.05,21.31 -9.48,45.31 -5.94,67.45 3.52,22.39 11.72,43.87 23.58,63 11.87,19.1 27.58,35.98 46.6,48.08 18.92,12.15 41.37,18.94 63.83,18.41 l -0.02,-2.23 c -22.02,-0.03 -43.64,-7.19 -61.71,-19.41 -18.16,-12.18 -32.99,-28.93 -44.02,-47.69 -21.85,-37.25 -30.09,-84.51 -14.21,-124.42 8.47,-19.43 20.81,-37.93 38.07,-50.44 16.89,-12.88 37.18,-20.87 58.22,-24.18 21.06,-3.44 42.91,-2.3 63.81,2.59 20.94,4.75 41.14,12.72 59.68,23.48 l 13.38,8.88 c 4.52,2.9 8.19,6.54 12.34,9.74 4.11,3.02 7.94,7.15 11.8,11.14 l 5.8,5.95 c 1.26,1.41 3.19,3.99 4.75,5.93 13.3,16.6 23.4,35.64 30.2,55.84 13.59,40.57 14.49,84.81 8.58,127.63 -6.03,42.97 -18.71,85.09 -35.68,125.28 -17,40.18 -38.09,78.74 -63.24,114.24 -12.69,17.81 -26.1,34.46 -41.24,50.09 -7.37,7.69 -15.76,15.08 -23.59,22.63 l -11.95,11.27 -12.48,10.68 c -32.95,28.87 -68.31,54.94 -104.92,79.08 -18.14,12.34 -37.16,23.35 -55.93,34.72 -19.23,10.62 -38.29,21.56 -58,31.33 -39.12,20.06 -79.19,38.37 -120,55.04 -81.48,33.57 -165.31,62.04 -249.68,88.03 -84.4,25.56 -170.78,46.59 -255.53,74.6 -84.66,27.51 -168.57,62.19 -242.65,114.25 -36.74,26.47 -69.67,57.66 -98.84,93.52 l -18.84,27.4 -4.71,6.85 -2.35,3.43 -0.59,0.85 c -0.78,1.24 -0.51,0.89 -0.81,1.41 l -1.02,1.88 -8.14,15.07 c -5.83,9.86 -9.89,20.51 -14.37,30.97 -4.84,10.33 -7.8,21.31 -11.43,32.05 -26.37,86.98 -26.04,179.46 -9.07,267.3 8.72,44.03 21.95,87.06 40.63,128.12 4.73,10.3 9.44,20.61 15.01,30.11 l 8.02,14.56 c 3.07,5.18 6.11,9.54 9.16,14.34 6.29,9.28 11.81,19.07 18.72,27.9 l 20.34,26.75 c 28.59,34.5 60.9,65.81 96.5,92.96 l 27.51,19.25 c 9.32,6.21 19.36,11.44 29,17.19 9.6,6.01 19.73,10.44 29.8,15.08 9.9,4.58 20.28,9.54 30.49,13.63 10.23,4.26 20.38,8.84 31.4,12.19 5.5,1.65 11.3,2.93 17.47,3.06 6.2,-0.03 12.67,-1.81 17.97,-5.43 10.12,-7.67 15.31,-18.9 19.48,-29.14 l 11.83,-31.12 c 7.8,-20.68 15.32,-41.44 24.38,-61.72 8.84,-20.39 16.9,-40.96 26.83,-60.58 10.05,-19.56 21.43,-38.42 34.95,-55.62 13.53,-17.37 29.79,-31.84 47.92,-43.96 9.42,-6.15 18.32,-11.55 28.65,-14.96 10.06,-3.97 20.86,-4.35 32.33,-9.62 5.71,-2.84 10.21,-8.02 13.01,-13.35 2.57,-5.28 4.67,-11.19 5.89,-16.47 2.83,-10.91 6.02,-20.88 8.96,-31.37 15.06,-41.45 41.35,-77.75 75.14,-105.35 16.68,-13.7 35.71,-25.1 55.4,-34.01 20.04,-8.35 41.05,-14.06 62.48,-16.79 l 5.74,-0.73 -0.98,-5.97 c -2.02,-12.4 -3.61,-25.44 -1.68,-37.55 0.16,-5.96 2.37,-12.72 3.66,-19.11 1.76,-5.51 4.26,-11.81 6.31,-17.67 l 8.82,-16.91 c 3.7,-5.18 7.19,-10.51 11,-15.58 4.34,-4.64 8.38,-9.58 12.91,-14 4.91,-4.01 9.45,-8.5 14.61,-12.14 5.36,-3.26 10.45,-7.32 15.98,-9.95 l 8.28,-3.92 c 2.73,-1.33 5.39,-2.73 8.75,-3.54 l 9.53,-2.88 4.77,-1.44 4.24,-0.85 c 6.36,-1.35 12.76,-2.44 19.21,-3.43 l 19.76,-2.79 c 6.69,-1.18 14.35,-2.13 21.99,-7.16 7.7,-5.23 11.43,-13.19 14.02,-19.84 2.51,-6.85 4.27,-13.49 5.8,-20.14 l 4.38,-19.58 c 1.75,-6.08 2.91,-12.33 5.09,-18.27 4.2,-11.94 9.39,-23.56 15.96,-34.43 6.49,-10.89 13.95,-21.27 22.53,-30.63 4.2,-4.79 8.53,-9.42 13.32,-13.62 l 6.96,-6.52 7.5,-5.88 c 4.89,-4.09 10.14,-7.66 15.54,-11.02 5.2,-3.67 10.84,-6.58 16.46,-9.52 11.2,-5.94 23.08,-10.52 35.19,-14.05 12.13,-3.54 24.6,-5.53 37.12,-6.51 6.26,-0.41 12.53,-0.04 18.8,-0.13 6.23,0.53 12.43,1.42 18.64,2.07 l 12.2,1.29 -0.92,-11.65 c -2.23,-28.29 0.2,-56.9 9.99,-82.98 9.78,-26.08 26.88,-48.83 47.97,-67.36 21.16,-18.54 46.25,-32.87 72.75,-44 l 20.14,-7.81 20.44,-6.79 c 7.15,-2.13 14.07,-3.89 21.4,-6.33 8.14,-2.59 15.94,-6.55 22.45,-11.82 13.3,-10.42 22.35,-24.1 29.46,-37.83 7.1,-13.84 12.37,-28.11 17.13,-42.31 l 13.44,-42.21 c 4.2,-13.28 10.35,-26.96 15.93,-40.6 22.62,-54.52 45.38,-108.95 68.91,-163.01 46.56,-108.3 96.46,-215.25 154.84,-317.58 7.05,-12.93 14.86,-25.41 22.3,-38.11 7.51,-12.67 14.9,-25.41 22.96,-37.73 7.95,-12.39 15.7,-24.92 23.82,-37.2 l 24.99,-36.44 c 8.25,-12.2 17.42,-23.73 26.1,-35.64 l 13.23,-17.7 13.91,-17.15 c 18.1,-23.23 38.08,-45.03 57.67,-67.1 l -1.65,-1.51"

            /><path
            d="M 2245.93,1076.64 H 2072.85 V 1116 c 12.43,11.8 24.17,23.1 35.22,33.9 11.04,10.79 21.84,22.03 32.39,33.71 21.34,23.48 35.91,42.28 43.69,56.4 7.79,14.13 11.68,28.73 11.68,43.79 0,7.79 -1.23,14.63 -3.67,20.53 -2.46,5.9 -5.81,10.8 -10.08,14.69 -4.39,3.77 -9.48,6.59 -15.25,8.47 -5.78,1.89 -12.12,2.83 -19.03,2.83 -6.65,0 -13.4,-0.84 -20.24,-2.55 -6.85,-1.68 -13.4,-3.79 -19.68,-6.3 -5.28,-2.14 -10.36,-4.71 -15.26,-7.72 -4.89,-3.02 -8.85,-5.59 -11.86,-7.72 h -2.07 v 39.92 c 7.78,3.89 18.61,7.69 32.49,11.4 13.86,3.7 27.02,5.55 39.45,5.55 26.11,0 46.58,-6.94 61.4,-20.81 14.81,-13.88 22.22,-32.68 22.22,-56.4 0,-10.93 -1.29,-21.04 -3.87,-30.33 -2.57,-9.29 -6.11,-17.89 -10.63,-25.8 -4.65,-8.16 -10.24,-16.26 -16.76,-24.29 -6.53,-8.04 -13.44,-15.95 -20.72,-23.73 -11.8,-12.81 -24.96,-26.12 -39.45,-39.93 -14.51,-13.81 -26.09,-24.73 -34.75,-32.77 h 137.86 v -32.2"

            /><path
            d="m 2409.59,1131.44 c 3.64,9.29 6.21,21.03 7.72,35.22 1.5,14.19 2.26,30.95 2.26,50.28 0,19.21 -0.76,35.91 -2.26,50.1 -1.51,14.19 -4.15,25.99 -7.91,35.41 -3.77,9.54 -8.94,16.79 -15.54,21.75 -6.59,4.95 -15.16,7.44 -25.71,7.44 -10.42,0 -18.99,-2.49 -25.7,-7.44 -6.72,-4.96 -12.03,-12.34 -15.92,-22.13 -3.76,-9.54 -6.34,-21.6 -7.72,-36.16 -1.38,-14.56 -2.07,-31.01 -2.07,-49.34 0,-19.59 0.59,-35.97 1.78,-49.16 1.2,-13.18 3.81,-24.98 7.82,-35.4 3.64,-9.67 8.82,-17.11 15.54,-22.33 6.71,-5.21 15.48,-7.81 26.27,-7.81 10.42,0 18.99,2.48 25.71,7.44 6.71,4.96 11.96,12.34 15.73,22.13 z m 48.21,85.5 c 0,-50.34 -7.32,-87.29 -21.94,-110.83 -14.63,-23.54 -37.2,-35.31 -67.71,-35.31 -30.88,0 -53.55,11.99 -67.98,35.97 -14.44,23.98 -21.66,60.58 -21.66,109.8 0,50.6 7.31,87.6 21.93,111.02 14.63,23.41 37.2,35.12 67.71,35.12 30.89,0 53.55,-12.11 67.99,-36.35 14.44,-24.23 21.66,-60.7 21.66,-109.42"

            /><path
            d="m 2652.72,1076.64 h -136.73 v 28.62 h 50.85 v 187.96 h -50.85 v 25.61 c 19.21,0 33.37,2.74 42.47,8.19 9.1,5.47 14.22,15.79 15.35,30.98 H 2603 v -252.74 h 49.72 v -28.62"

            /><path
            d="m 2840.68,1241.8 c 0,19.09 -1.76,34.62 -5.27,46.62 -3.52,11.98 -8.35,21.25 -14.51,27.77 -5.52,6.03 -11.11,10.17 -16.76,12.43 -5.65,2.26 -11.86,3.39 -18.64,3.39 -15.45,0 -27.75,-5.52 -36.91,-16.57 -9.17,-11.05 -13.75,-27.06 -13.75,-48.02 0,-11.81 1.5,-21.54 4.52,-29.19 3.01,-7.66 7.91,-14.26 14.69,-19.78 4.77,-3.89 10.17,-6.49 16.19,-7.82 6.03,-1.31 12.5,-1.97 19.4,-1.97 8.04,0 16.7,1.41 25.99,4.23 9.29,2.83 17.39,6.56 24.3,11.21 0.12,1.88 0.28,4.36 0.47,7.44 0.18,3.07 0.28,6.5 0.28,10.26 z m -144.07,24.11 c 0,14.44 2.35,27.62 7.06,39.55 4.7,11.93 11.14,22.22 19.3,30.89 7.79,8.28 17.29,14.75 28.54,19.39 11.23,4.65 22.63,6.97 34.18,6.97 12.93,0 24.63,-2.17 35.12,-6.49 10.48,-4.34 19.56,-10.58 27.21,-18.74 9.67,-10.3 17.17,-23.8 22.51,-40.5 5.33,-16.69 8,-37.79 8,-63.27 0,-23.23 -2.6,-45.24 -7.81,-66.02 -5.22,-20.78 -12.9,-38.01 -23.07,-51.69 -10.8,-14.57 -23.77,-25.68 -38.89,-33.34 -15.14,-7.66 -33.81,-11.49 -56.03,-11.49 -5.02,0 -10.36,0.29 -16.01,0.85 -5.65,0.57 -10.92,1.6 -15.82,3.11 v 35.97 h 1.88 c 3.14,-1.76 8.04,-3.45 14.69,-5.08 6.66,-1.64 13.44,-2.45 20.34,-2.45 24.61,0 43.95,8.1 58.01,24.29 14.06,16.2 22.03,39.36 23.92,69.5 -10.05,-6.78 -19.62,-11.74 -28.72,-14.88 -9.11,-3.14 -18.99,-4.71 -29.67,-4.71 -10.42,0 -19.9,1.13 -28.43,3.39 -8.54,2.26 -17.14,6.65 -25.8,13.18 -10.05,7.66 -17.65,17.36 -22.79,29.1 -5.15,11.74 -7.72,25.9 -7.72,42.47"

            /><path
            d="m 858.313,3945.89 c 1.07,1.18 2.093,1.41 2.949,0.63 2.273,-2.09 4.539,-4.17 6.808,-6.25 0.86,-0.79 0.7,-1.82 -0.367,-2.99 -7.594,-9.43 -15.125,-18.94 -22.586,-28.53 -0.629,-0.71 -0.781,-1.41 -0.527,-2.18 0.305,-0.69 0.738,-1.09 1.308,-1.15 34.313,-0.42 68.282,-1.74 101.879,-3.94 -2.25,35.59 -3.621,71.5 -4.101,107.68 0.121,0.43 0.023,0.77 -0.227,1 -0.906,0.92 -1.976,0.75 -3.066,-0.34 -8.645,-7.53 -17.254,-15.15 -25.813,-22.86 -1.144,-1.18 -2.109,-1.33 -2.941,-0.52 -2.211,2.15 -4.418,4.3 -6.625,6.45 -0.824,0.82 -0.711,1.79 0.457,2.98 24.773,25.45 50.031,50.15 75.754,74.08 1.262,1.19 2.34,1.39 3.125,0.53 2.094,-2.26 4.183,-4.53 6.277,-6.79 0.789,-0.87 0.5,-1.9 -0.742,-3.08 -8.375,-8.99 -16.684,-18.07 -24.93,-27.22 -0.523,-0.7 -0.82,-1.28 -0.914,-1.85 0.039,-44.21 1.41,-88.03 4.094,-131.4 48.325,-3.63 95.865,-9.07 142.545,-16.25 0.77,0.11 1.33,0.33 1.74,0.71 9.73,8.05 19.51,15.98 29.34,23.79 1.19,1.1 2.22,1.18 3.09,0.24 2.09,-2.27 4.17,-4.54 6.25,-6.82 0.78,-0.85 0.57,-1.85 -0.6,-2.93 -29.04,-26.81 -57.44,-54.71 -85.14,-83.68 -1.01,-1.05 -1.92,-1.18 -2.76,-0.36 -2.23,2.13 -4.45,4.26 -6.68,6.4 -0.83,0.81 -0.82,1.75 0.13,2.91 6.95,8.28 13.96,16.49 21.03,24.63 0.64,0.66 0.83,1.27 0.62,1.87 -0.22,0.6 -0.66,1.06 -1.36,1.36 -35.49,4.34 -71.45,7.69 -107.853,9.98 3.218,-38.15 7.449,-75.92 12.679,-113.26 0.153,-0.88 0.61,-1.37 1.313,-1.41 0.269,-0.03 0.449,-0.02 0.543,0.1 0.543,0.1 1.062,0.42 1.426,0.85 7.378,7.52 14.8,14.96 22.262,22.32 1.09,1.05 2.03,1.14 2.9,0.37 2.3,-2.05 4.6,-4.1 6.91,-6.16 0.86,-0.77 0.83,-1.68 -0.16,-2.8 -21.221,-23.91 -41.975,-48.49 -62.252,-73.74 -0.938,-1.17 -1.86,-1.38 -2.754,-0.65 -2.406,1.94 -4.813,3.86 -7.219,5.79 -0.996,0.8 -1.047,1.74 -0.098,2.94 6.559,9.47 13.18,18.86 19.879,28.18 0.36,0.64 0.555,1.22 0.614,1.84 -6.844,45.03 -12.247,90.71 -16.168,136.95 -45.364,2.63 -91.391,3.63 -138.024,2.94 -0.769,-0.19 -1.336,-0.52 -1.812,-1.08 -9.965,-10.34 -19.856,-20.82 -29.676,-31.43 -1.156,-1.45 -2.168,-1.76 -3.07,-1.03 -2.407,1.93 -4.805,3.86 -7.211,5.79 -0.903,0.71 -0.801,1.78 0.363,3.23 28.945,35.93 58.762,70.65 89.391,104.16"

            /><path
            d="m 1176.68,4211.07 c -1.28,-0.94 -1.54,-1.87 -0.85,-2.81 20.12,-27.24 40.24,-54.49 60.36,-81.74 0.68,-0.94 1.61,-0.98 2.83,-0.08 7.14,5.27 14.3,10.49 21.48,15.66 43.62,31.21 56.06,60.87 35.85,91.91 -9.84,14.98 -24.26,21.12 -43.37,18.04 -16.5,-2.61 -35.77,-11.57 -57.33,-27.12 -6.35,-4.58 -12.67,-9.2 -18.97,-13.86 z m 16.07,31.99 c 25.12,17.99 45.5,29.37 60.71,34.78 38.5,13.57 66.15,6.1 82.82,-20.63 11.19,-17.89 9.94,-38.89 -2.76,-63.14 -11.42,-21.54 -28.29,-40.21 -50.88,-56.77 -13.07,-6.75 -26.1,-13.67 -39.09,-20.76 18.01,-24.39 36.02,-48.79 54.04,-73.18 0.63,-0.84 1.51,-0.89 2.74,-0.14 11.58,7.4 23.21,14.66 34.89,21.77 1.35,0.83 2.33,0.71 2.99,-0.24 1.77,-2.52 3.55,-5.04 5.32,-7.57 0.67,-0.96 0.4,-1.87 -0.87,-2.75 -32.58,-23.02 -64.59,-47.19 -95.97,-72.49 -1.1,-0.9 -2,-0.88 -2.74,0.02 -1.94,2.41 -3.87,4.81 -5.8,7.22 -0.81,0.99 -0.67,1.92 0.45,2.83 9.05,8.49 18.16,16.88 27.35,25.18 1.08,0.84 1.31,1.77 0.62,2.69 -41.83,54.32 -83.66,108.63 -125.49,162.95 -0.7,0.92 -1.72,0.89 -2.93,-0.06 -11.42,-7.6 -22.79,-15.33 -34.11,-23.18 -1.27,-1.01 -2.21,-1.05 -2.95,-0.14 -1.93,2.41 -3.86,4.81 -5.8,7.21 -0.73,0.9 -0.5,1.85 0.76,2.86 31.68,25.55 63.93,50.06 96.7,73.54"

            /><path
            d="m 1544.46,4447.1 c 1.35,0.61 2.33,0.43 2.83,-0.63 1.28,-2.81 2.56,-5.61 3.85,-8.42 0.49,-1.06 -0.01,-1.91 -1.36,-2.54 -11.01,-6.13 -21.97,-12.37 -32.87,-18.7 -1.34,-0.64 -1.83,-1.54 -1.32,-2.57 23.17,-48.03 46.33,-96.04 69.5,-144.07 22.31,64.36 48.42,128.58 78.36,192.29 0.5,0.7 0.64,1.39 0.38,2.03 -1.63,4.12 -3.26,8.23 -4.88,12.34 -0.43,1.09 -1.4,1.32 -2.97,0.71 -11.96,-3.66 -23.91,-7.43 -35.84,-11.31 -1.43,-0.6 -2.33,-0.34 -2.79,0.73 -1.19,2.84 -2.38,5.69 -3.57,8.54 -0.45,1.09 0.02,1.88 1.45,2.5 38.06,15.79 76.5,30.45 115.24,43.97 1.47,0.53 2.36,0.21 2.74,-0.89 1.02,-2.91 2.04,-5.82 3.06,-8.73 0.36,-1.1 -0.12,-1.89 -1.58,-2.4 -12.15,-5.29 -24.25,-10.68 -36.3,-16.2 -1.44,-0.55 -1.93,-1.34 -1.52,-2.43 23.96,-64.23 47.92,-128.47 71.88,-192.71 0.41,-1.1 1.25,-1.4 2.54,-0.92 11.5,3.26 23.02,6.41 34.55,9.45 1.31,0.46 2.15,0.06 2.57,-1.14 1.02,-2.91 2.04,-5.82 3.05,-8.73 0.38,-1.1 -0.04,-1.87 -1.34,-2.32 -34.41,-12 -68.54,-25.02 -102.34,-39.06 -1.29,-0.53 -2.12,-0.26 -2.56,0.82 -1.19,2.85 -2.38,5.7 -3.57,8.54 -0.49,1.18 -0.14,2.04 1.16,2.57 10.03,5.17 20.1,10.25 30.23,15.25 1.42,0.57 1.88,1.37 1.45,2.45 -20.13,51 -40.27,101.99 -60.4,152.98 -29.45,-63.42 -55.08,-127.34 -76.91,-191.38 -0.29,-0.64 -0.33,-1.32 -0.03,-1.96 2.6,-5.39 5.21,-10.8 7.81,-16.2 0.51,-1.04 1.41,-1.26 2.63,-0.67 10.62,4.07 21.27,8.04 31.94,11.9 1.21,0.55 2.14,0.27 2.67,-0.89 1.29,-2.8 2.58,-5.6 3.86,-8.41 0.48,-1.05 0.07,-1.88 -1.14,-2.44 -33.37,-15.3 -66.38,-31.6 -98.99,-48.92 -1.23,-0.66 -2.09,-0.46 -2.64,0.57 -1.45,2.72 -2.9,5.45 -4.35,8.17 -0.62,1.15 -0.32,2.02 0.93,2.67 10.19,6.47 20.45,12.84 30.76,19.11 1.2,0.61 1.58,1.46 1.06,2.5 -30.97,61.17 -61.94,122.34 -92.92,183.52 -0.52,1.06 -1.53,1.17 -2.84,0.52 -12.35,-5.15 -24.66,-10.43 -36.95,-15.84 -1.38,-0.71 -2.29,-0.57 -2.86,0.46 -1.45,2.72 -2.9,5.44 -4.35,8.17 -0.54,1.04 -0.17,1.9 1.23,2.63 36.71,19.5 73.88,37.87 111.46,55.09"

            /><path
            d="m 2050.68,4612.15 c 5.49,1.02 11.86,1.87 18.99,2.51 7.14,0.63 14.42,1.19 21.77,1.43 7.32,0.38 14.58,0.53 21.7,0.56 7.12,0.02 13.26,0.06 18.44,0.1 1.7,0 2.6,-0.43 2.72,-1.37 2.59,-17.85 5.17,-35.7 7.77,-53.54 0.18,-1.17 -0.54,-1.84 -2.15,-2.08 -5.76,-0.83 -11.52,-1.69 -17.28,-2.58 -0.7,-0.1 -1.28,-0.07 -1.82,0.08 -0.46,0.16 -0.72,0.48 -0.79,0.94 -5.05,12.76 -10.16,25.5 -15.32,38.23 -0.11,0.68 -0.79,1.18 -2.07,1.44 -2.74,0.02 -6.22,0.11 -10.52,0.24 -4.31,0.1 -8.74,0.13 -13.2,0.2 -4.49,-0.06 -9.16,-0.22 -13.98,-0.61 -4.75,-0.37 -9.26,-0.95 -13.57,-1.74 -20.34,-3.75 -37.96,-9.78 -52.64,-17.87 -14.68,-8.1 -26.28,-17.8 -34.88,-28.98 -8.61,-11.18 -14.02,-23.56 -16.51,-37.04 -2.43,-13.47 -1.81,-27.46 1.82,-42.03 3.82,-15.23 10.24,-29 19.04,-41.34 8.86,-12.36 19.51,-22.54 31.9,-30.66 12.33,-8.14 26.14,-13.7 41.39,-16.8 15.23,-3.1 31.19,-3.05 48.11,0.08 2.98,0.55 6.5,1.31 10.78,2.32 4.21,1 8.37,2.08 12.49,3.25 4.14,1.19 8.24,2.47 12.27,3.85 4.04,1.38 7.44,2.99 10.14,4.83 1.01,0.75 1.44,1.47 1.32,2.16 0.62,13.71 1.31,27.41 2.05,41.13 -0.04,0.24 0.11,0.55 0.46,0.96 0.42,0.41 0.92,0.66 1.58,0.77 5.44,0.83 10.87,1.64 16.31,2.43 1.54,0.23 2.34,-0.25 2.51,-1.4 2.58,-17.79 5.16,-35.58 7.75,-53.37 0.08,-0.68 -0.53,-1.36 -1.95,-2.05 -4.37,-1.69 -9.26,-3.48 -14.51,-5.34 -5.32,-1.86 -11.14,-3.79 -17.43,-5.75 -6.28,-1.96 -13.08,-3.87 -20.41,-5.79 -7.27,-1.91 -15.4,-3.71 -24.41,-5.42 -14.77,-2.76 -28.96,-4.14 -42.51,-4.12 -13.61,0.03 -26.45,1.42 -38.71,4.22 -12.17,2.68 -23.52,6.63 -33.9,11.76 -10.39,5.21 -19.72,11.38 -27.97,18.73 -8.21,7.24 -15.46,15.67 -21.61,25.36 -6.18,9.53 -10.81,20 -13.87,31.22 -3.53,12.92 -4.81,25.39 -3.74,37.5 1.09,12.09 4.21,23.68 9.35,34.75 5.22,11.05 12.16,21.36 20.82,30.89 8.75,9.44 18.94,18.07 30.5,25.68 11.64,7.65 24.64,14.21 38.91,19.7 14.33,5.49 29.28,9.71 44.86,12.56"

            /><path
            d="m 2540.83,4640.03 c 1.54,-0.09 2.25,-0.67 2.19,-1.85 -0.88,-18.65 -1.76,-37.3 -2.63,-55.96 -0.06,-1.27 -0.81,-1.88 -2.3,-1.81 -5.57,0.25 -11.14,0.48 -16.72,0.69 -1.49,0.05 -2.19,0.54 -2.16,1.48 -2.51,13.59 -5.09,27.19 -7.73,40.78 0.03,0.92 -0.76,1.43 -2.2,1.46 -24.92,0.78 -49.86,1.12 -74.79,1.03 -1.24,-0.01 -1.81,-0.6 -1.81,-1.75 0.31,-68.3 0.61,-136.59 0.92,-204.89 0,-1.04 0.65,-1.63 2.04,-1.73 13.15,-0.89 26.26,-1.91 39.37,-3.06 1.5,-0.16 2.2,-0.79 2.19,-1.96 -0.05,-3.08 -0.11,-6.17 -0.17,-9.25 -0.03,-1.16 -0.74,-1.73 -2.24,-1.7 -39.44,0.66 -78.9,0.12 -118.31,-1.63 -1.49,-0.07 -2.23,0.48 -2.29,1.64 -0.14,3.08 -0.28,6.16 -0.42,9.24 -0.06,1.16 0.65,1.84 2.13,2.02 13.07,1.51 26.17,2.89 39.28,4.14 1.36,0.16 2.02,0.75 1.99,1.79 -1.6,68.28 -3.2,136.55 -4.8,204.83 -0.02,1.17 -0.62,1.73 -1.78,1.71 -24.93,-0.6 -49.84,-1.64 -74.74,-3.1 -1.53,-0.09 -2.22,-0.6 -2.17,-1.52 -2.25,-13.66 -4.45,-27.32 -6.59,-40.98 0.06,-0.94 -0.68,-1.43 -2.11,-1.53 -5.6,-0.37 -11.19,-0.75 -16.78,-1.16 -1.48,-0.11 -2.24,0.47 -2.34,1.75 -1.4,18.62 -2.8,37.24 -4.19,55.86 -0.09,1.18 0.6,1.79 2.13,1.91 85.53,6.26 171.38,7.44 257.03,3.55"

            /><path
            d="m 2836.9,4595.25 c -34.16,6.35 -63.06,0.2 -85.69,-17.76 -20.31,-16.21 -31.97,-38.25 -35.67,-65.67 -2.67,-19.73 -1.02,-38.55 4.63,-56.48 6.34,-19.92 17.15,-36.7 32.18,-50.49 15.05,-13.81 33.09,-22.56 54.35,-26.65 30.71,-5.9 56.51,-0.58 78.23,16.66 18.64,14.92 31.62,35.91 38.36,63.39 7.53,30.73 4.52,59.13 -10.16,85.06 -15.74,27.81 -41.41,45.45 -76.23,51.94 z m 8.32,14.78 c 46.44,-8.75 81.25,-28.96 103.38,-58.77 21.71,-29.18 27.17,-61.53 17.78,-96.58 -9.35,-34.86 -30.02,-60.14 -60.68,-76.95 -31.64,-17.45 -66.84,-21.95 -107.42,-14.27 -40.66,7.65 -72.2,24.32 -95.88,51.34 -23.65,26.97 -34.18,57.99 -30.12,93.75 4.07,36.03 21.46,64.43 53.54,84.13 32.64,19.94 73.05,26.07 119.4,17.35"

            /><path
            d="m 3228.71,4294.87 c 10.07,-3.62 20.16,-6.21 30.27,-7.6 10.1,-1.52 19.8,-1.29 29.09,0.66 9.36,1.91 17.9,6.02 25.67,12.34 7.79,6.34 14.46,15.24 20.06,26.77 5.76,11.83 8.73,22.82 8.76,33 0.05,10.19 -2.33,19.65 -7.15,28.35 -4.75,8.66 -11.3,16.57 -19.67,23.58 -8.26,7.08 -17.6,13.23 -27.86,18.44 -19.73,-45.18 -39.45,-90.36 -59.17,-135.54 z m 22.1,151.26 c -11.48,3.98 -22.5,6.45 -33.15,7.65 -10.62,1.05 -20.63,0.34 -29.88,-2.25 -9.26,-2.6 -17.57,-7.38 -24.89,-14.37 -7.31,-6.98 -13.13,-16.51 -17.54,-28.52 -4.53,-12.34 -6.33,-23.59 -5.52,-33.69 0.82,-10.11 3.68,-19.18 8.44,-27.2 4.78,-8.03 11.14,-15.16 18.96,-21.48 7.92,-6.23 16.86,-11.85 27,-16.79 18.86,45.55 37.72,91.1 56.58,136.65 z m 13.69,33.07 c 0.44,1.06 -0.09,1.92 -1.47,2.49 -11.99,6 -24.03,11.89 -36.14,17.66 -1.39,0.54 -1.93,1.37 -1.51,2.46 1.12,2.88 2.24,5.75 3.36,8.63 0.47,1.21 1.46,1.48 2.86,0.95 39.38,-15.35 78.39,-31.87 116.98,-49.59 1.37,-0.64 1.84,-1.56 1.31,-2.72 -1.29,-2.8 -2.59,-5.6 -3.88,-8.4 -0.49,-1.06 -1.47,-1.25 -2.84,-0.62 -12.69,4.74 -25.42,9.35 -38.16,13.83 -1.37,0.6 -2.35,0.4 -2.81,-0.67 -2.77,-6.35 -5.55,-12.7 -8.32,-19.05 15.75,-7.34 30.25,-16 43.42,-25.7 13.14,-9.8 23.44,-20.51 30.93,-32 7.5,-11.51 11.83,-23.55 13,-36.15 1.17,-12.59 -1.77,-25.68 -8.71,-39.25 -7.06,-13.79 -16.12,-24.18 -26.93,-31.24 -10.89,-7.14 -22.86,-11.51 -35.97,-13.2 -13.12,-1.69 -27.11,-1.09 -42.1,1.73 -15.05,2.74 -29.94,7.02 -44.82,12.74 -3.16,-7.25 -6.33,-14.5 -9.5,-21.76 -0.46,-1.1 -0.02,-1.9 1.19,-2.43 10.68,-5.68 21.31,-11.45 31.88,-17.33 1.21,-0.56 1.61,-1.44 1.07,-2.61 -1.29,-2.8 -2.58,-5.59 -3.88,-8.4 -0.49,-1.06 -1.39,-1.28 -2.6,-0.73 -34,15.62 -68.37,30.18 -103.07,43.7 -1.23,0.49 -1.69,1.28 -1.27,2.36 1.12,2.88 2.24,5.76 3.36,8.63 0.46,1.19 1.38,1.53 2.61,1.04 11.47,-3.46 22.91,-7.04 34.34,-10.73 1.23,-0.5 2.13,-0.23 2.57,0.82 3.03,7.32 6.06,14.63 9.09,21.95 -15.14,6.75 -28.84,14.19 -41.1,22.51 -12.31,8.23 -22.33,17.46 -30.14,27.78 -7.8,10.33 -12.94,21.56 -15.44,33.78 -2.5,12.2 -1.39,25.55 3.57,39.95 5.05,14.64 12.51,26.17 22.51,34.65 9.97,8.36 21.62,14.08 35.03,16.96 13.4,2.89 28.14,3.35 44.13,1.28 15.95,-2.14 32.52,-6.26 49.5,-12.52 2.65,6.39 5.3,12.8 7.95,19.2"

            /><path
            d="m 3683.55,4235.8 c -29.33,20.96 -58.93,28.07 -87.5,21.62 -25.69,-5.88 -45.73,-20.84 -60.57,-44.23 -10.68,-16.8 -16.97,-34.66 -19.12,-53.49 -2.35,-20.95 0.76,-40.97 9.1,-60.16 8.34,-19.21 21.58,-35.18 39.8,-48.36 26.31,-19.03 52.71,-25.75 80.22,-19.82 23.66,5.24 44.56,18.52 62.26,40.6 19.82,24.67 28.73,52.05 25.71,82.34 -3.24,32.5 -19.98,60.12 -49.9,81.5 z m 13.92,9.79 c 39.84,-28.64 64.13,-62.74 72.56,-100.05 8.3,-36.5 0.03,-68.63 -23.29,-96.41 -23.22,-27.66 -53.11,-41.34 -88.86,-42.81 -36.92,-1.63 -71.82,10.14 -106.62,35.15 -34.87,25.03 -57.44,54.09 -68.33,89.05 -10.87,34.89 -7.79,67.71 10.83,98.52 18.79,31.04 46.76,49.38 84.89,53.33 38.75,3.89 79.05,-8.21 118.82,-36.78"

            /><path
            d="m 3996.47,3953.82 c -1.13,1.19 -2.09,1.38 -2.94,0.58 -24.64,-23.22 -49.29,-46.43 -73.94,-69.65 -0.85,-0.8 -0.74,-1.72 0.31,-2.89 6.28,-6.71 12.53,-13.48 18.75,-20.29 37.6,-41.41 69.59,-51.78 98.02,-28.06 13.7,11.49 17.84,26.97 11.93,46.33 -5.03,16.71 -16.87,35.65 -35.55,56.07 -5.51,6.01 -11.03,11.98 -16.58,17.91 z m 34.44,-13.16 c 21.64,-23.86 36.15,-43.76 43.85,-58.93 19.43,-38.43 16.02,-67.92 -8.58,-87.51 -16.45,-13.15 -38,-13.65 -64.47,-2.7 -23.51,9.88 -44.88,25.49 -64.79,46.98 -8.66,12.7 -17.44,25.28 -26.35,37.75 -22.07,-20.78 -44.13,-41.56 -66.19,-62.34 -0.77,-0.72 -0.69,-1.63 0.23,-2.8 9.04,-11.02 17.97,-22.15 26.79,-33.4 1.02,-1.3 1.07,-2.31 0.19,-3.08 -2.3,-2.06 -4.59,-4.12 -6.89,-6.18 -0.86,-0.78 -1.83,-0.57 -2.9,0.63 -27.84,31.07 -56.45,60.99 -85.77,89.77 -1.04,1.03 -1.15,1.93 -0.33,2.76 2.15,2.21 4.3,4.42 6.46,6.63 0.9,0.92 1.84,0.87 2.89,-0.15 9.65,-8.16 19.24,-16.45 28.78,-24.85 0.99,-1 1.95,-1.18 2.77,-0.34 48.9,48.02 97.8,96.05 146.7,144.07 0.83,0.79 0.64,1.83 -0.45,2.95 -9.13,10.74 -18.36,21.36 -27.67,31.89 -1.17,1.16 -1.3,2.08 -0.51,2.94 2.15,2.2 4.31,4.41 6.46,6.63 0.82,0.82 1.77,0.69 2.95,-0.46 29.61,-29.05 58.57,-59.14 86.83,-90.26"

            /><path
            d="m 1381.32,845.988 c 1.29,-0.886 1.45,-1.879 0.71,-2.957 -2.05,-2.953 -4.09,-5.91 -6.13,-8.851 -0.78,-1.11 -1.78,-1.321 -3.07,-0.43 -11.54,6.621 -23.03,13.379 -34.49,20.281 -1.21,0.879 -2.26,0.789 -3.06,-0.293 -20.52,-28.207 -41.04,-56.406 -61.56,-84.629 -0.77,-1.078 -0.64,-2.05 0.38,-2.789 8.53,-6.23 16.77,-10.769 24.53,-13.84 7.88,-2.988 15.66,-4.73 23.41,-5.121 7.7,-0.359 15.31,0.539 22.79,2.7 7.53,2.14 15.34,5.16 23.35,9.07 14.32,7.359 28.51,14.859 42.59,22.5 7.97,4.062 15.27,7.242 22.04,9.551 6.8,2.3 13.11,3.59 19,4.019 5.91,0.34 11.38,-0.078 16.45,-1.39 5.13,-1.321 10,-3.379 14.71,-6.239 1.8,-1.109 3.86,-2.531 6.11,-4.359 2.31,-1.852 4.42,-3.961 6.48,-6.231 2,-2.269 3.81,-4.742 5.31,-7.25 1.53,-2.589 2.7,-5.019 3.44,-7.332 0.09,-0.359 0.09,-1.128 -0.13,-2.136 -0.2,-1.114 -0.66,-1.563 -1.44,-1.453 -11.14,-4.27 -22.37,-8.438 -33.68,-12.5 -0.98,-0.36 -1.74,-0.528 -2.4,-0.457 -0.71,0.058 -1.22,0.386 -1.57,0.937 -1.13,3.84 -2.58,7.383 -4.43,10.621 -1.82,3.301 -4.19,5.809 -7.01,7.551 -4.05,2.488 -9.22,3.719 -15.46,3.699 -6.3,0.02 -13.64,-2.629 -22.12,-7.851 -7.32,-4.2 -14.67,-8.36 -22.05,-12.489 -6.5,-3.398 -13.23,-6.57 -20.18,-9.582 -6.93,-3.047 -13.83,-5.398 -20.72,-7.109 -6.88,-1.738 -13.43,-2.719 -19.63,-3.18 -6.18,-0.398 -11.71,0.039 -16.47,1.34 4.52,-5.059 8.72,-10.379 12.4,-15.848 3.73,-5.511 6.83,-11.691 9.32,-18.55 2.48,-6.86 4.38,-14.34 5.7,-22.379 1.31,-8.18 2.11,-17.383 2.42,-27.653 0.08,-29.39 0.74,-58.929 1.95,-88.578 0.32,-1.492 1.04,-2.551 2.24,-3.242 10.34,-7.469 20.75,-14.828 31.22,-22.098 1.66,-0.949 2.11,-2.082 1.38,-3.351 -1.79,-3.129 -3.58,-6.25 -5.38,-9.391 -0.66,-1.14 -1.85,-1.308 -3.5,-0.328 -23.9,13.738 -47.59,27.981 -71.07,42.719 -1.19,0.762 -1.97,1.84 -2.45,3.461 0.7,31.258 1.99,62.371 3.86,93.301 0.85,14.25 0.24,26.39 -1.85,36.539 -2.12,10.07 -5.08,18.839 -8.9,26.218 -3.88,7.34 -8.36,13.551 -13.51,18.653 -5.2,5.129 -10.46,9.629 -15.92,13.59 -1.3,0.98 -2.41,0.886 -3.19,-0.204 -22.52,-30.957 -45.03,-61.906 -67.55,-92.859 -0.79,-1.078 -0.47,-2.16 0.9,-3.18 11.56,-9.73 23.19,-19.328 34.93,-28.789 1.46,-1.011 1.69,-2.078 0.87,-3.3 -2.05,-2.961 -4.11,-5.93 -6.16,-8.899 -0.76,-1.101 -1.83,-1.199 -3.3,-0.18 -39.37,27.329 -78.05,56.141 -115.95,86.43 -1.41,1.129 -1.61,2.168 -0.79,3.238 2.26,2.813 4.51,5.633 6.77,8.45 0.91,1.121 2.02,1.179 3.43,0.082 12.56,-8.653 25.18,-17.141 37.87,-25.469 1.36,-1.031 2.49,-1.043 3.3,0.027 48.48,63.582 96.95,127.16 145.43,190.742 0.81,1.039 0.6,2.09 -0.6,3.008 -9.94,9.031 -19.79,18.199 -29.55,27.461 -1.24,1 -1.37,2.012 -0.5,3.078 2.24,2.813 4.48,5.602 6.73,8.403 0.83,1.07 1.84,1.121 3.06,0.16 32.91,-26.301 66.5,-51.321 100.69,-75.063"

            /><path
            d="m 1772.51,625.559 c -31.74,12.113 -61.01,11.07 -89.27,-3.477 -25.21,-13.172 -44.85,-34.172 -58.09,-63.621 -9.52,-21.231 -14.16,-42.68 -13.47,-64.68 0.79,-24.371 8.26,-46.801 22.55,-66.871 14.21,-20.039 34.2,-35.012 59.33,-44.422 36.36,-13.617 68.84,-11.226 96.19,6.383 23.55,15.32 39.9,39.09 49.7,70.481 11,35.277 10.24,68.207 -0.98,98.937 -12.06,33.051 -33.77,55.012 -65.96,67.27 z m 11.59,15.64 c 42.33,-15.961 72.27,-40.379 91.23,-75.301 18.49,-34.007 22.85,-71.16 11.19,-111.91 -11.57,-40.418 -35.53,-69.929 -73.47,-87.09 -38.85,-17.757 -83.77,-17.91 -132.44,0.454 -48.85,18.457 -83.38,48.218 -102.21,86.859 -18.91,38.758 -18.25,77.16 -0.17,114.949 18.3,38.262 47.14,63.11 85.18,76.332 38.86,13.367 78.29,11.727 120.69,-4.293"

            /><path
            d="m 2344.45,518.27 c 1.43,-0.059 2.13,-0.809 2.07,-2.141 -0.17,-3.578 -0.35,-7.168 -0.52,-10.75 -0.06,-1.379 -0.86,-2.059 -2.29,-1.988 -12.72,-0.52 -25.46,-0.903 -38.23,-1.153 -1.43,0.094 -2.24,-0.519 -2.33,-1.879 -5.68,-79.738 -11.37,-159.488 -17.06,-239.238 -0.09,-1.34 0.7,-2.09 2.32,-2.199 14.26,-2.094 28.55,-4.031 42.86,-5.82 1.63,-0.082 2.45,-0.872 2.37,-2.332 -0.17,-3.61 -0.35,-7.211 -0.52,-10.809 -0.07,-1.371 -0.95,-1.992 -2.59,-1.91 -44.68,2.211 -89.3,5.828 -133.8,10.84 -1.63,0.211 -2.32,0.968 -2.18,2.3 0.41,3.579 0.82,7.168 1.23,10.75 0.15,1.457 1.04,2.09 2.65,1.93 13.61,-0.449 27.21,-0.762 40.8,-0.941 1.83,-0.168 2.82,0.461 2.94,1.781 7.35,79.609 14.7,159.219 22.06,238.828 0.12,1.332 -0.62,2.102 -2.25,2.25 -23.05,2.152 -46.08,4.731 -69.06,7.742 -0.86,0.129 -1.39,-0.531 -1.57,-1.84 -3.23,-17.761 -6.72,-35.781 -10.45,-53.961 -3.74,-18.23 -7.96,-35.91 -12.72,-53.05 -4.77,-17.141 -10.07,-33.5 -16.06,-49.039 -5.98,-15.559 -12.87,-29.559 -20.63,-41.993 -11.96,-18.937 -25.31,-32.468 -39.85,-40.519 -14.54,-8.117 -30.48,-10.559 -47.48,-7.399 -3.25,0.61 -6.75,1.379 -10.38,2.309 -3.68,0.992 -7.44,2.441 -11.29,4.391 -3.93,1.968 -7.56,4.242 -11.04,6.898 -3.48,2.652 -6.84,5.902 -10.1,9.801 -0.31,0.32 -0.6,0.93 -0.92,1.851 -0.31,0.918 0.08,1.821 1.32,2.809 10.66,7.84 21.22,15.75 31.66,23.75 1.16,0.832 2.21,1.043 3.18,0.563 0.99,-0.422 1.62,-0.852 1.91,-1.204 3.75,-4.687 7.59,-8.199 11.53,-10.488 3.95,-2.219 7.7,-3.672 11.24,-4.308 3.4,-0.622 6.58,-0.903 9.58,-0.891 3,0.008 6.2,0.609 9.46,1.781 3.26,1.156 6.55,2.84 9.84,5.11 3.29,2.277 6.61,5.199 10.03,8.777 5.34,6.152 10.42,13.742 15.34,22.871 4.93,9.129 9.68,19.211 14.18,30.18 4.5,10.941 8.63,22.5 12.39,34.601 3.75,12.028 7.27,24.418 10.53,37.199 3.27,12.719 6.03,25.391 8.28,37.77 2.27,12.48 4.37,24.301 6.33,35.52 0.05,0.312 -0.1,0.71 -0.33,1.281 -0.18,0.57 -0.75,0.961 -1.62,1.058 -13.94,3.2 -27.84,6.551 -41.69,10.051 -1.42,0.238 -2.04,1.07 -1.81,2.442 0.61,3.527 1.22,7.07 1.82,10.609 0.21,1.32 1.08,1.871 2.49,1.641 72.35,-12.27 145.27,-20.211 218.36,-23.832"

            /><path
            d="m 2610.69,524.191 c 1.48,0.129 2.28,-0.472 2.41,-1.812 0.35,-3.57 0.69,-7.149 1.03,-10.719 0.14,-1.379 -0.55,-2.16 -2.04,-2.289 -11.51,-2.242 -23.05,-4.371 -34.62,-6.391 -0.56,-0.039 -1.04,-0.378 -1.44,-0.921 -0.39,-0.559 -0.4,-1.27 -0.1,-2.047 31.1,-47.852 64.36,-94.942 99.75,-141.121 19.25,52.937 36.57,106.14 51.97,159.48 0.21,0.559 0.01,1.199 -0.66,1.777 -0.73,0.543 -1.33,0.774 -1.89,0.711 -11.28,-0.89 -22.57,-1.648 -33.85,-2.328 -1.42,-0.172 -2.2,0.399 -2.39,1.789 -0.49,3.559 -0.97,7.11 -1.46,10.668 -0.18,1.332 0.4,2.121 1.82,2.301 31.8,4.371 63.51,9.57 95.09,15.602 1.4,0.281 2.28,-0.282 2.53,-1.59 0.67,-3.52 1.35,-7.039 2.03,-10.571 0.26,-1.359 -0.33,-2.21 -1.76,-2.468 -11.85,-3.422 -23.75,-6.742 -35.68,-9.934 -0.56,-0.109 -1.12,-0.609 -1.53,-1.496 -17.67,-64.332 -38.12,-128.473 -61.35,-192.262 -6.52,-17.91 -13.36,-32.781 -20.22,-44.66 -6.96,-11.762 -14.2,-21.371 -21.62,-28.648 -7.43,-7.293 -15.16,-12.602 -23.21,-15.793 -7.98,-3.207 -16.22,-5.117 -24.8,-5.77 -8.42,-0.668 -16.42,-0.07 -23.92,1.641 -7.5,1.789 -13.39,4.93 -17.86,9.469 -0.3,0.211 -0.76,0.773 -1.3,1.562 -0.55,0.801 -0.32,1.738 0.62,2.828 7.81,9.84 15.5,19.723 23.08,29.653 0.9,1.089 1.78,1.648 2.63,1.578 0.77,-0.039 1.57,-0.371 2.24,-0.891 3.98,-3.109 7.99,-5.508 11.99,-7.168 4,-1.691 9,-2.223 15.1,-1.723 10.61,0.883 19.59,4.821 26.81,11.704 7.22,6.898 13.67,16.668 19.35,29.277 0.21,0.531 0.28,1.191 0.21,1.902 -0.07,0.629 -0.28,1.379 -0.65,2.149 -45.18,58.902 -86.91,119.269 -125.12,180.789 -0.61,0.793 -1.25,1.172 -1.82,1.133 -12.03,0.679 -24.04,1.48 -36.02,2.39 -1.19,-0.043 -1.77,0.637 -1.81,2.039 -0.11,3.578 -0.22,7.168 -0.33,10.75 -0.04,1.34 0.7,2.071 2.11,2.11 38.94,1.211 77.85,3.648 116.68,7.3"

            /><path
            d="m 2998.66,603.262 c 0.7,0.109 1.35,-0.09 2.05,-0.621 52.67,-59.911 108.76,-117.852 168.13,-173.551 7.79,81.07 11.75,161.711 11.96,241.621 -0.04,0.871 0.31,1.48 1.13,1.828 27.52,12.109 54.8,24.922 81.83,38.441 1.31,0.641 2.31,0.372 2.9,-0.82 1.61,-3.211 3.22,-6.422 4.82,-9.629 0.63,-1.25 0.26,-2.199 -1.06,-2.871 -11.11,-6.84 -22.29,-13.551 -33.53,-20.148 -1.52,-0.723 -1.95,-1.68 -1.39,-2.91 34.14,-72.301 68.27,-144.602 102.41,-216.911 0.52,-1.101 1.66,-1.351 3.42,-0.632 14.49,5.671 28.95,11.511 43.37,17.523 1.55,0.629 2.66,0.359 3.26,-0.832 1.62,-3.219 3.24,-6.449 4.86,-9.668 0.59,-1.191 0.13,-2.203 -1.37,-2.973 -43.93,-22.027 -88.45,-42.437 -133.47,-61.25 -1.53,-0.648 -2.61,-0.32 -3.12,0.911 -1.39,3.332 -2.77,6.66 -4.16,9.992 -0.52,1.238 0,2.269 1.48,3.008 14.55,7.261 29.02,14.679 43.4,22.269 1.53,0.82 2.05,1.793 1.55,2.91 -31.46,70.461 -62.91,140.93 -94.36,211.391 -0.55,-0.238 -1.09,-0.488 -1.65,-0.731 -0.09,-92.988 -5.23,-186.961 -15.52,-281.468 -0.08,-0.59 -0.8,-1.18 -2.02,-1.629 -1.67,-0.621 -3.35,-1.25 -5.03,-1.871 -1.28,-0.481 -2.13,-0.469 -2.66,-0.11 -69.2,63.949 -134.01,130.918 -194.27,200.43 -0.57,-0.172 -1.14,-0.34 -1.71,-0.512 22.01,-72.988 44.01,-145.98 66.02,-218.969 0.39,-1.269 1.41,-1.718 2.98,-1.218 13.87,3.058 27.73,6.258 41.57,9.617 1.77,0.562 2.82,0.121 3.28,-1.27 1.11,-3.418 2.23,-6.847 3.35,-10.277 0.41,-1.273 -0.18,-2.211 -1.97,-2.793 -37.54,-12.18 -75.35,-23.301 -113.39,-33.348 -1.6,-0.402 -2.55,0.071 -2.88,1.348 -0.92,3.481 -1.84,6.973 -2.75,10.461 -0.34,1.281 0.22,2.23 1.78,2.762 14.46,4.949 28.87,10.039 43.22,15.297 1.54,0.55 2.18,1.472 1.83,2.652 -22.21,76.801 -44.42,153.621 -66.63,230.43 -0.37,1.269 -1.29,1.738 -2.69,1.339 -12.62,-2.441 -25.26,-4.75 -37.9,-6.921 -1.58,-0.411 -2.48,0.07 -2.85,1.421 -0.91,3.469 -1.83,6.93 -2.75,10.399 -0.33,1.312 0.2,2.18 1.78,2.582 29.07,7.711 58,16.148 86.75,25.301"

            /><path
            d="m 3610.31,610.672 c 8.92,5.969 17.81,12.008 26.66,18.129 13.92,9.629 24.89,19.16 32.97,28.429 8.1,9.27 13.71,18.411 16.75,27.282 3.06,8.84 3.89,17.316 2.47,25.258 -1.44,7.968 -4.85,15.449 -10.27,22.582 -6.9,9.078 -15,15.347 -24.2,18.886 -9.24,3.461 -19.09,4.563 -29.74,3.364 -10.6,-1.313 -21.57,-4.403 -32.91,-9.43 -11.34,-5.012 -22.73,-11.422 -34.2,-19.274 -5.62,-3.839 -11.26,-7.648 -16.9,-11.429 -1.39,-0.938 -1.66,-2.008 -0.82,-3.278 22.28,-33.441 44.57,-66.871 66.85,-100.3 0.75,-1.11 1.86,-1.2 3.34,-0.219 z m -35.86,296.457 c 1.24,0.98 2.29,0.902 3.11,-0.149 13.41,-17.16 26.82,-34.32 40.23,-51.48 0.94,-1.199 0.75,-2.281 -0.54,-3.289 -4.74,-3.699 -9.5,-7.371 -14.27,-11.02 -0.22,-0.152 -0.67,-0.359 -1.32,-0.5 -0.72,-0.179 -1.17,-0.011 -1.5,0.399 -12.12,10.551 -24.2,21.148 -36.21,31.82 -0.32,0.422 -0.78,0.559 -1.26,0.57 -0.6,-0.089 -1.15,-0.351 -1.72,-0.781 -28,-21.078 -56.44,-41.277 -85.3,-60.578 -1.29,-0.859 -1.56,-1.871 -0.82,-3 17.43,-26.152 34.85,-52.281 52.27,-78.43 0.77,-1.14 1.85,-1.3 3.21,-0.359 6.67,4.449 13.3,8.957 19.93,13.5 10.05,6.867 19.42,13.348 28.15,19.277 8.76,5.871 17.41,10.942 26.06,15.2 8.59,4.222 17.3,7.57 26.08,10.043 8.75,2.429 18.19,3.898 28.38,4.449 11.85,0.801 22.87,-0.93 33.04,-5.332 10.22,-4.379 18.58,-10.641 25.13,-18.797 2.3,-2.863 4.41,-5.981 6.25,-9.453 1.93,-3.449 3.63,-7.239 5.16,-11.36 1.61,-4.14 2.7,-8.328 3.34,-12.589 0.66,-4.239 0.91,-8.641 0.84,-12.981 -0.39,-7.051 -2,-14.578 -5,-22.66 -2.99,-8.027 -7.75,-16.699 -14.35,-25.84 -6.54,-9.078 -15.04,-18.648 -25.43,-28.687 -10.39,-9.981 -23.33,-20.461 -38.77,-31.153 -36.05,-24.969 -72.69,-48.687 -109.84,-71.179 -1.45,-0.872 -2.58,-0.77 -3.27,0.402 -1.86,3.09 -3.72,6.18 -5.59,9.269 -0.75,1.25 -0.38,2.348 1.06,3.219 12.18,8.641 24.27,17.41 36.28,26.32 1.42,0.899 1.8,1.989 1.08,3.102 -42.88,67.477 -85.76,134.957 -128.64,202.438 -0.72,1.128 -1.75,1.289 -3.01,0.5 -11.75,-6.11 -23.54,-12.059 -35.36,-17.879 -1.26,-0.782 -2.31,-0.559 -3.02,0.621 -1.85,3.078 -3.71,6.136 -5.56,9.218 -0.71,1.141 -0.39,2.161 0.87,2.899 61.91,37.48 122.13,78.891 180.31,124.25"

            /><path
            d="m 573.348,2652.44 h 197.121 c 0,0 -33.656,31.73 -39.422,33.66 -5.774,1.92 -59.621,50 -59.141,55.77 0.485,5.77 2.407,53.85 -16.828,41.35 -19.23,-12.5 -60.578,-56.74 -68.269,-72.12 -7.696,-15.39 -13.461,-35.58 -13.461,-35.58 v -23.08"

            /><path
            d="m 806.047,2640.9 47.117,74.04 c 0,0 63.465,-32.69 94.234,-41.34 30.774,-8.66 21.157,-32.7 21.157,-32.7 l 25,13.46 c 0,0 96.155,-14.42 116.355,-31.73 20.19,-17.31 44.23,-48.08 60.58,-63.46 16.34,-15.39 0,-25.96 0,-25.96 0,0 -28.85,3.84 -59.62,16.34 -30.77,12.5 -135.585,44.24 -182.702,57.7 -47.117,13.46 -122.121,33.65 -122.121,33.65"

            /><path
            d="m 1410.83,2481.88 -60.59,-19.61 66.59,-13.98 -65.12,-3.07 63.43,-27.81 -64.78,10.4 60.47,-62.15 -83.6,55.05 c 4.39,18.98 1.83,39.83 -7.74,56.59 l 102.08,68.41 -69.36,-67.29 z m -256.9,-31.56 c -7.39,0.46 -16.35,1.01 -26.63,1.64 -10.3,0.66 -21.95,1.4 -34.42,3.45 -12.55,1.72 -26.15,3.61 -40.49,5.92 -14.43,2.02 -29.33,5.15 -44.83,8.26 -15.447,3.22 -31.568,6.14 -47.615,9.91 -16.109,3.6 -32.476,7.27 -48.843,10.93 -16.313,3.57 -32.625,7.14 -48.684,10.65 -16.043,3.79 -31.895,6.36 -47.242,9.34 -15.36,2.59 -30.153,6.44 -44.235,7.81 -14.093,1.78 -27.433,3.8 -39.804,5.66 -12.297,2.21 -23.93,2.7 -34.157,3.5 -10.23,0.85 -19.152,1.6 -26.5,2.21 -14.695,1.37 -23.089,2.37 -23.089,2.37 0,0 8.402,0.93 23.105,2.2 7.348,0.55 16.274,1.23 26.516,2.01 10.246,0.67 21.746,1.86 34.496,0.9 12.722,-0.44 26.562,-0.92 41.222,-1.78 14.782,-0.32 29.864,-2.77 45.633,-4.86 15.684,-2.42 32.192,-3.8 48.379,-7.52 16.305,-3.3 32.867,-6.64 49.43,-9.99 16.359,-3.93 32.719,-7.86 48.82,-11.73 16.153,-3.8 31.785,-8.01 47.038,-11.79 15.27,-3.63 29.88,-8.1 43.87,-11.21 13.99,-3.25 27.17,-6.62 39.35,-9.75 12.17,-3.29 23.41,-5.64 33.4,-7.76 9.99,-2.25 18.69,-4.2 25.87,-5.81 14.36,-3.52 22.57,-5.52 22.57,-5.52 0,0 -8.41,0.21 -23.16,0.96 z m -854.348,-9.37 c -15.414,0 -27.906,15.71 -27.906,35.09 0,1.86 0.621,3.46 0.844,5.24 -0.012,0.34 -0.149,0.62 -0.149,0.96 0,6.28 2.317,11.67 5.746,15.38 5.113,8.04 12.641,13.51 21.465,13.51 15.414,0 27.906,-15.71 27.906,-35.09 0,-19.38 -12.492,-35.09 -27.906,-35.09 z m 1190.148,224.96 c -12.97,-3.61 -87.5,-64.43 -98.08,-75.01 -10.58,-10.58 -78.85,-77.89 -97.12,-81.73 -18.27,-3.85 -141.35,14.42 -206.74,34.44 -65.39,20.02 -234.626,69.41 -308.665,80.95 -74.043,11.54 -109.621,7.69 -164.434,7.69 -54.808,0 -162.996,-18.54 -219.238,-35.58 -46.094,-13.96 -161.547,-75 -199.047,-142.31 -3.472,-6.24 20.192,-20.2 20.192,-20.2 0,0 -12.5,-19.23 -6.731,-28.84 5.774,-9.62 78.852,-49.04 162.512,-67.31 8.195,-1.8 21.07,-3.25 36.426,-4.44 0.726,0.38 1.328,0.67 2.101,1.07 2.727,1.68 5.567,3.42 8.508,5.23 2.012,0.98 4.785,3.58 7.301,5.38 5.457,3.71 10.094,9.02 15.316,14.07 4.321,5.39 9.141,10.75 13.477,18.41 l 3.047,4.87 2.492,5.35 5.086,10.82 3.539,11.5 1.793,5.77 1.012,5.91 c 0.668,3.96 1.328,7.89 1.98,11.77 0.383,3.92 0.344,7.83 0.539,11.68 0.707,7.75 -0.437,15.16 -1.023,22.29 -0.371,7.19 -2.735,13.59 -3.848,19.8 -1.281,6.19 -3.906,11.28 -5.492,16.19 -1.535,4.93 -3.883,8.86 -5.653,12.14 -3.542,6.57 -5.57,10.32 -5.57,10.32 0,0 2.485,-3.47 6.832,-9.53 2.18,-3.04 4.969,-6.6 7.196,-11.4 2.238,-4.72 5.691,-9.83 7.804,-15.98 1.961,-6.16 5.254,-12.63 6.613,-20.02 1.575,-7.34 3.758,-15.09 4.086,-23.38 0.321,-4.12 0.879,-8.34 1.004,-12.62 -0.164,-4.29 -0.328,-8.63 -0.496,-13.01 l -0.308,-6.64 -1.133,-6.58 -2.34,-13.32 -4.133,-12.96 -2.117,-6.49 -2.863,-6.27 c -3.012,-7.46 -7.977,-15.42 -12.817,-23.11 -3.679,-4.73 -7.254,-9.33 -11.011,-13.63 59.804,-2.62 128.425,-2.81 128.425,-2.81 0,0 75.969,-76.93 105.778,-94.24 29.804,-17.3 88.461,-18.27 90.383,-6.73 1.925,11.54 -21.153,95.2 -21.153,95.2 l 211.551,6.73 c 0,0 6.727,-37.5 36.539,-73.08 29.81,-35.58 102.89,-52.89 108.66,-50 5.77,2.88 -8.66,88.47 -12.5,101.93 -3.85,13.46 0,67.31 4.8,67.31 4.81,0 177.9,9.61 205.78,3.85 27.89,-5.77 180.76,-125.01 207.71,-125.01 23.07,0 17.03,17.32 13.45,32.69 -1.56,6.76 -5.77,53.85 -27.88,97.12 -6.92,13.54 -34.62,50 -34.62,50 0,0 60.38,149.02 67.31,183.67 6.73,33.65 -26.92,52.88 -44.23,48.08"

            /><path
            d="m 313.941,2465.74 c 0,-10.93 -7.168,-19.79 -16.011,-19.79 -8.844,0 -16.016,8.86 -16.016,19.79 0,10.93 7.172,19.79 16.016,19.79 8.843,0 16.011,-8.86 16.011,-19.79"

            /><path
            d="m 2439.46,4756.96 c -1277.87,0 -2317.499,-1039.63 -2317.499,-2317.5 0,-1277.88 1039.629,-2317.499 2317.499,-2317.499 1277.88,0 2317.5,1039.619 2317.5,2317.499 0,1277.87 -1039.62,2317.5 -2317.5,2317.5 z M 2439.46,0 C 2110.16,0 1790.68,64.5117 1489.9,191.73 1199.4,314.602 938.52,490.48 714.504,714.5 490.484,938.512 314.602,1199.39 191.73,1489.89 64.5078,1790.68 0,2110.16 0,2439.46 c 0,329.3 64.5078,648.78 191.73,949.57 122.872,290.49 298.754,551.37 522.774,775.39 224.016,224.01 484.896,399.9 775.396,522.77 300.78,127.22 620.26,191.73 949.56,191.73 329.3,0 648.78,-64.51 949.57,-191.73 290.5,-122.87 551.38,-298.76 775.39,-522.77 224.02,-224.02 399.91,-484.9 522.78,-775.39 127.22,-300.79 191.73,-620.27 191.73,-949.57 0,-329.3 -64.51,-648.78 -191.73,-949.57 C 4564.33,1199.39 4388.44,938.512 4164.42,714.5 3940.41,490.48 3679.53,314.602 3389.03,191.73 3088.24,64.5117 2768.76,0 2439.46,0"

            />
    </g>
    </g>
</svg>
